<svg width="149" height="20" viewBox="0 0 149 20" fill="none" xmlns="http://www.w3.org/2000/svg">
    <path d="M6.131 19.054c-1.163 0-2.21-.196-3.14-.589-.93-.408-1.662-.98-2.193-1.716C.266 16.013 0 15.155 0 14.174h3.04c.067.736.358 1.34.873 1.815.532.474 1.271.71 2.218.71.98 0 1.745-.228 2.293-.686.549-.474.823-1.079.823-1.815 0-.572-.175-1.038-.523-1.397a3.292 3.292 0 0 0-1.272-.834c-.498-.196-1.196-.409-2.093-.638-1.13-.294-2.052-.588-2.767-.883A4.668 4.668 0 0 1 .798 9.024C.299 8.387.05 7.537.05 6.474c0-.981.25-1.84.748-2.575.498-.736 1.196-1.3 2.093-1.692.897-.392 1.936-.589 3.116-.589 1.678 0 3.049.417 4.112 1.251 1.08.818 1.678 1.946 1.795 3.384h-3.14c-.05-.621-.35-1.152-.898-1.594-.548-.441-1.271-.662-2.168-.662-.815 0-1.48.205-1.994.613-.515.409-.773.997-.773 1.766 0 .523.158.956.474 1.3.332.326.747.588 1.246.784.498.196 1.18.409 2.044.638 1.146.31 2.077.621 2.791.932.731.31 1.346.793 1.845 1.447.515.637.772 1.495.772 2.574 0 .867-.24 1.684-.723 2.452-.465.769-1.154 1.39-2.068 1.864-.898.458-1.961.687-3.19.687zM27.228 11.795c0 .507-.034.965-.1 1.373H16.635c.083 1.08.49 1.946 1.221 2.6.731.654 1.629.98 2.692.98 1.529 0 2.609-.629 3.24-1.888h3.066c-.415 1.243-1.171 2.265-2.268 3.066-1.08.785-2.426 1.177-4.038 1.177-1.313 0-2.492-.286-3.54-.858a6.465 6.465 0 0 1-2.442-2.453c-.581-1.062-.872-2.288-.872-3.678 0-1.39.282-2.607.847-3.654a6.078 6.078 0 0 1 2.418-2.452c1.047-.572 2.243-.858 3.589-.858 1.296 0 2.45.278 3.465.833a5.918 5.918 0 0 1 2.367 2.355c.565.997.848 2.15.848 3.457zm-2.966-.883c-.017-1.03-.39-1.855-1.122-2.476-.73-.622-1.637-.932-2.717-.932-.98 0-1.82.31-2.517.932-.698.605-1.113 1.43-1.246 2.476h7.602zM28.252 12.114c0-1.39.282-2.607.847-3.654.582-1.062 1.38-1.88 2.393-2.452 1.014-.572 2.177-.858 3.49-.858 1.661 0 3.032.392 4.112 1.177 1.097.768 1.836 1.872 2.218 3.31h-3.066c-.249-.67-.648-1.193-1.196-1.57-.548-.375-1.238-.563-2.069-.563-1.163 0-2.093.409-2.791 1.226-.681.801-1.022 1.93-1.022 3.384 0 1.455.34 2.591 1.022 3.409.698.817 1.628 1.226 2.791 1.226 1.645 0 2.734-.711 3.265-2.134h3.066c-.399 1.374-1.146 2.469-2.243 3.286-1.097.801-2.46 1.202-4.088 1.202-1.312 0-2.475-.286-3.489-.858a6.339 6.339 0 0 1-2.393-2.453c-.565-1.062-.847-2.288-.847-3.678zM49.276 19.103c-1.296 0-2.468-.286-3.515-.858a6.414 6.414 0 0 1-2.467-2.453c-.598-1.062-.897-2.288-.897-3.678 0-1.373.307-2.591.922-3.654a6.321 6.321 0 0 1 2.517-2.452c1.064-.572 2.252-.858 3.564-.858 1.313 0 2.501.286 3.565.858a6.321 6.321 0 0 1 2.517 2.452c.615 1.063.922 2.28.922 3.654 0 1.373-.316 2.591-.947 3.654a6.575 6.575 0 0 1-2.592 2.477c-1.08.572-2.276.858-3.59.858zm0-2.428c.73 0 1.412-.172 2.044-.515.648-.343 1.171-.858 1.57-1.545.399-.686.598-1.52.598-2.501 0-.98-.191-1.806-.573-2.477-.382-.686-.89-1.201-1.52-1.545a4.212 4.212 0 0 0-2.044-.515c-.732 0-1.413.172-2.044.515-.615.344-1.105.859-1.47 1.545-.366.67-.55 1.496-.55 2.477 0 1.455.375 2.583 1.123 3.384.764.785 1.72 1.177 2.866 1.177zM65.317 5.15c1.08 0 2.044.22 2.891.662a4.732 4.732 0 0 1 2.02 1.962c.481.866.722 1.912.722 3.138v7.97h-2.817V11.33c0-1.21-.307-2.133-.922-2.77-.615-.655-1.454-.982-2.517-.982-1.064 0-1.911.327-2.542.981-.615.638-.923 1.562-.923 2.771v7.553h-2.841V5.37h2.841v1.545a4.718 4.718 0 0 1 1.77-1.3 5.867 5.867 0 0 1 2.318-.465zM72.802 12.065c0-1.357.283-2.558.848-3.605.581-1.046 1.362-1.855 2.342-2.428.997-.588 2.102-.882 3.315-.882a6.33 6.33 0 0 1 2.642.588c.881.376 1.579.883 2.094 1.52V.737h2.866v18.146h-2.866v-2.035c-.465.654-1.113 1.193-1.944 1.618-.814.425-1.753.638-2.817.638a6.354 6.354 0 0 1-3.29-.883c-.98-.605-1.76-1.438-2.342-2.501-.565-1.08-.848-2.297-.848-3.654zm11.241.049c0-.932-.2-1.741-.598-2.428-.382-.686-.89-1.21-1.52-1.57a4.06 4.06 0 0 0-2.044-.539c-.731 0-1.413.18-2.044.54-.632.343-1.147.858-1.546 1.545-.382.67-.573 1.471-.573 2.403 0 .932.191 1.75.573 2.452.4.703.914 1.243 1.546 1.619.648.36 1.33.54 2.044.54a4.06 4.06 0 0 0 2.043-.54c.632-.36 1.139-.883 1.52-1.57.4-.703.599-1.52.599-2.452zM92.658 7.381c.482-.654 1.138-1.185 1.969-1.594.847-.425 1.786-.637 2.816-.637 1.213 0 2.31.286 3.29.858.981.572 1.753 1.39 2.318 2.452.565 1.046.848 2.248.848 3.605 0 1.357-.283 2.575-.848 3.654a6.35 6.35 0 0 1-2.343 2.501c-.98.589-2.068.883-3.265.883-1.063 0-2.01-.204-2.841-.613-.814-.409-1.462-.932-1.944-1.57v1.962h-2.842V.736h2.842V7.38zm8.349 4.684c0-.932-.199-1.733-.598-2.403-.382-.687-.897-1.202-1.545-1.545a4.06 4.06 0 0 0-2.044-.54c-.714 0-1.396.18-2.044.54-.631.36-1.146.883-1.545 1.57-.382.686-.573 1.495-.573 2.427 0 .932.19 1.75.573 2.452.399.687.914 1.21 1.545 1.57.648.36 1.33.54 2.044.54a4.06 4.06 0 0 0 2.044-.54c.648-.376 1.163-.916 1.545-1.619.399-.703.598-1.52.598-2.452zM108.725 7.332a4.36 4.36 0 0 1 1.645-1.594c.698-.392 1.52-.588 2.467-.588v2.893h-.722c-1.114 0-1.961.278-2.543.834-.565.556-.847 1.52-.847 2.894v7.111h-2.842V5.37h2.842v1.962zM113.677 12.065c0-1.357.283-2.558.847-3.605.582-1.046 1.363-1.855 2.343-2.428a6.354 6.354 0 0 1 3.29-.882c1.08 0 2.019.212 2.817.637.814.409 1.462.924 1.944 1.545V5.37h2.866v13.512h-2.866v-2.01c-.482.637-1.138 1.168-1.969 1.593-.831.425-1.778.638-2.841.638-1.18 0-2.26-.294-3.241-.883-.98-.605-1.761-1.438-2.343-2.501-.564-1.08-.847-2.297-.847-3.654zm11.241.049c0-.932-.199-1.741-.598-2.428-.382-.686-.889-1.21-1.521-1.57a4.057 4.057 0 0 0-2.043-.539c-.732 0-1.413.18-2.044.54-.632.343-1.147.858-1.546 1.545-.382.67-.573 1.471-.573 2.403 0 .932.191 1.75.573 2.452.399.703.914 1.243 1.546 1.619a4.15 4.15 0 0 0 2.044.54c.731 0 1.412-.18 2.043-.54.632-.36 1.139-.883 1.521-1.57.399-.703.598-1.52.598-2.452zM132.137 3.58c-.515 0-.947-.171-1.296-.515a1.718 1.718 0 0 1-.524-1.275c0-.507.175-.932.524-1.275.349-.343.781-.515 1.296-.515.498 0 .922.172 1.271.515.349.343.523.768.523 1.275 0 .507-.174.932-.523 1.275a1.746 1.746 0 0 1-1.271.515zm1.396 1.79v13.512h-2.842V5.37h2.842zM143.367 5.15c1.08 0 2.044.22 2.891.662a4.733 4.733 0 0 1 2.019 1.962c.482.866.723 1.912.723 3.138v7.97h-2.816V11.33c0-1.21-.308-2.133-.923-2.77-.614-.655-1.454-.982-2.517-.982s-1.911.327-2.542.981c-.615.638-.922 1.562-.922 2.771v7.553h-2.842V5.37h2.842v1.545a4.718 4.718 0 0 1 1.769-1.3 5.867 5.867 0 0 1 2.318-.465z" fill="#333"/>
    <path d="M6.131 19.054c-1.163 0-2.21-.196-3.14-.589-.93-.408-1.662-.98-2.193-1.716C.266 16.013 0 15.155 0 14.174h3.04c.067.736.358 1.34.873 1.815.532.474 1.271.71 2.218.71.98 0 1.745-.228 2.293-.686.549-.474.823-1.079.823-1.815 0-.572-.175-1.038-.523-1.397a3.292 3.292 0 0 0-1.272-.834c-.498-.196-1.196-.409-2.093-.638-1.13-.294-2.052-.588-2.767-.883A4.668 4.668 0 0 1 .798 9.024C.299 8.387.05 7.537.05 6.474c0-.981.25-1.84.748-2.575.498-.736 1.196-1.3 2.093-1.692.897-.392 1.936-.589 3.116-.589 1.678 0 3.049.417 4.112 1.251 1.08.818 1.678 1.946 1.795 3.384h-3.14c-.05-.621-.35-1.152-.898-1.594-.548-.441-1.271-.662-2.168-.662-.815 0-1.48.204-1.994.613-.515.409-.773.997-.773 1.766 0 .523.158.956.474 1.3.332.326.747.588 1.246.784.498.196 1.18.409 2.044.638 1.146.31 2.077.621 2.791.932.731.31 1.346.793 1.845 1.446.515.638.772 1.496.772 2.575 0 .867-.24 1.684-.723 2.452-.465.769-1.154 1.39-2.068 1.864-.898.458-1.961.687-3.19.687zM27.228 11.795c0 .507-.034.965-.1 1.373H16.635c.083 1.08.49 1.946 1.221 2.6.731.654 1.629.98 2.692.98 1.529 0 2.609-.629 3.24-1.888h3.066c-.415 1.243-1.171 2.265-2.268 3.066-1.08.785-2.426 1.177-4.038 1.177-1.313 0-2.492-.286-3.54-.858a6.465 6.465 0 0 1-2.442-2.453c-.581-1.062-.872-2.288-.872-3.678 0-1.39.282-2.608.847-3.654a6.078 6.078 0 0 1 2.418-2.452c1.047-.572 2.243-.858 3.589-.858 1.296 0 2.45.278 3.465.833a5.918 5.918 0 0 1 2.367 2.355c.565.997.848 2.15.848 3.457zm-2.966-.883c-.017-1.03-.39-1.855-1.122-2.476-.73-.622-1.637-.932-2.717-.932-.98 0-1.82.31-2.517.932-.698.605-1.113 1.43-1.246 2.476h7.602zM28.252 12.114c0-1.39.282-2.608.847-3.654.582-1.062 1.38-1.88 2.393-2.452 1.014-.572 2.177-.858 3.49-.858 1.661 0 3.032.392 4.112 1.177 1.097.768 1.836 1.872 2.218 3.31h-3.066c-.249-.67-.648-1.193-1.196-1.57-.548-.375-1.238-.563-2.069-.563-1.163 0-2.093.409-2.791 1.226-.681.801-1.022 1.929-1.022 3.384 0 1.455.34 2.591 1.022 3.409.698.817 1.628 1.226 2.791 1.226 1.645 0 2.734-.711 3.265-2.134h3.066c-.399 1.374-1.146 2.469-2.243 3.286-1.097.801-2.46 1.202-4.088 1.202-1.312 0-2.475-.286-3.489-.858a6.339 6.339 0 0 1-2.393-2.453c-.565-1.062-.847-2.288-.847-3.678zM49.276 19.103c-1.296 0-2.468-.286-3.515-.858a6.414 6.414 0 0 1-2.467-2.453c-.598-1.062-.897-2.288-.897-3.678 0-1.373.307-2.591.922-3.654a6.321 6.321 0 0 1 2.517-2.452c1.064-.572 2.252-.858 3.564-.858 1.313 0 2.501.286 3.565.858a6.321 6.321 0 0 1 2.517 2.452c.615 1.063.922 2.28.922 3.654 0 1.373-.316 2.591-.947 3.654a6.575 6.575 0 0 1-2.592 2.477c-1.08.572-2.276.858-3.59.858zm0-2.428c.73 0 1.412-.172 2.044-.515.648-.343 1.171-.858 1.57-1.545.399-.686.598-1.52.598-2.501 0-.98-.191-1.807-.573-2.477-.382-.686-.89-1.201-1.52-1.545a4.212 4.212 0 0 0-2.044-.515c-.732 0-1.413.172-2.044.515-.615.344-1.105.859-1.47 1.545-.366.67-.55 1.496-.55 2.477 0 1.455.375 2.583 1.123 3.384.764.785 1.72 1.177 2.866 1.177zM65.317 5.15c1.08 0 2.044.22 2.891.662a4.732 4.732 0 0 1 2.02 1.962c.481.866.722 1.912.722 3.138v7.97h-2.817V11.33c0-1.21-.307-2.133-.922-2.77-.615-.655-1.454-.982-2.517-.982-1.064 0-1.911.327-2.542.981-.615.638-.923 1.562-.923 2.771v7.553h-2.841V5.37h2.841v1.545a4.718 4.718 0 0 1 1.77-1.3 5.867 5.867 0 0 1 2.318-.465zM72.802 12.065c0-1.357.283-2.559.848-3.605.581-1.046 1.362-1.855 2.342-2.428.997-.588 2.102-.882 3.315-.882a6.33 6.33 0 0 1 2.642.588c.881.376 1.579.883 2.094 1.52V.737h2.866v18.146h-2.866v-2.035c-.465.654-1.113 1.193-1.944 1.618-.814.425-1.753.638-2.817.638a6.354 6.354 0 0 1-3.29-.883c-.98-.605-1.76-1.438-2.342-2.501-.565-1.08-.848-2.297-.848-3.654zm11.241.049c0-.932-.2-1.741-.598-2.428-.382-.686-.89-1.21-1.52-1.57a4.06 4.06 0 0 0-2.044-.539c-.731 0-1.413.18-2.044.54-.632.343-1.147.858-1.546 1.545-.382.67-.573 1.471-.573 2.403 0 .932.191 1.75.573 2.452.4.703.914 1.243 1.546 1.619.648.36 1.33.54 2.044.54a4.06 4.06 0 0 0 2.043-.54c.632-.36 1.139-.883 1.52-1.57.4-.703.599-1.52.599-2.452zM132.137 3.58c-.515 0-.947-.171-1.296-.515a1.718 1.718 0 0 1-.524-1.275c0-.507.175-.932.524-1.275.349-.343.781-.515 1.296-.515.498 0 .922.172 1.271.515.349.343.523.768.523 1.275 0 .507-.174.932-.523 1.275a1.746 1.746 0 0 1-1.271.515z" fill="#F36"/>
</svg>
