<svg width="172" height="23" viewBox="0 0 172 23" fill="none" xmlns="http://www.w3.org/2000/svg">
    <path d="M7.078 22.659c-1.343 0-2.551-.23-3.625-.69-1.075-.48-1.919-1.152-2.532-2.015-.614-.863-.921-1.87-.921-3.02h3.51c.077.862.413 1.572 1.007 2.128.614.556 1.468.835 2.56.835 1.133 0 2.015-.269 2.648-.806.633-.556.95-1.266.95-2.13 0-.67-.202-1.217-.605-1.639-.384-.422-.873-.748-1.467-.978-.576-.23-1.381-.48-2.417-.748-1.304-.346-2.369-.69-3.194-1.036-.805-.365-1.496-.92-2.071-1.669C.345 10.143.058 9.146.058 7.9c0-1.151.287-2.158.863-3.021.575-.863 1.38-1.525 2.417-1.985 1.035-.46 2.234-.691 3.596-.691 1.937 0 3.52.49 4.747 1.467 1.247.96 1.938 2.283 2.072 3.97h-3.625c-.058-.728-.403-1.351-1.036-1.87-.633-.517-1.467-.776-2.503-.776-.94 0-1.707.24-2.302.72-.595.479-.892 1.17-.892 2.07 0 .615.182 1.123.547 1.526.383.383.863.69 1.438.92.576.23 1.362.48 2.36.748 1.323.365 2.397.73 3.222 1.094.844.364 1.554.93 2.13 1.697.594.748.891 1.755.891 3.021 0 1.017-.278 1.976-.834 2.877-.537.902-1.333 1.63-2.388 2.187-1.036.537-2.264.806-3.683.806zM31.43 14.142c0 .595-.038 1.132-.114 1.612H19.203c.096 1.266.566 2.282 1.41 3.05.843.767 1.88 1.15 3.107 1.15 1.765 0 3.011-.738 3.74-2.215H31c-.48 1.458-1.353 2.656-2.62 3.596-1.246.92-2.8 1.381-4.66 1.381-1.515 0-2.877-.335-4.086-1.007a7.526 7.526 0 0 1-2.82-2.877c-.67-1.247-1.006-2.685-1.006-4.316 0-1.63.326-3.06.978-4.287.671-1.246 1.601-2.205 2.79-2.877 1.21-.671 2.59-1.007 4.144-1.007 1.496 0 2.83.326 4 .978a6.888 6.888 0 0 1 2.733 2.762c.652 1.17.978 2.523.978 4.057zm-3.423-1.035c-.02-1.209-.45-2.177-1.295-2.906-.844-.73-1.89-1.094-3.136-1.094-1.132 0-2.1.365-2.906 1.094-.806.71-1.285 1.678-1.439 2.905h8.776zM32.613 14.516c0-1.63.326-3.06.978-4.287.672-1.246 1.592-2.205 2.762-2.877 1.17-.671 2.513-1.007 4.028-1.007 1.918 0 3.5.46 4.748 1.381 1.266.902 2.12 2.196 2.56 3.884H44.15c-.287-.786-.748-1.4-1.38-1.841-.634-.441-1.43-.662-2.389-.662-1.342 0-2.417.48-3.222 1.439-.787.94-1.18 2.263-1.18 3.97 0 1.708.393 3.04 1.18 4 .805.959 1.88 1.438 3.222 1.438 1.9 0 3.155-.834 3.77-2.503h3.538c-.46 1.611-1.323 2.896-2.59 3.855-1.265.94-2.838 1.41-4.718 1.41-1.515 0-2.858-.335-4.028-1.007-1.17-.69-2.09-1.65-2.762-2.877-.652-1.247-.978-2.685-.978-4.316zM56.882 22.716c-1.496 0-2.848-.335-4.057-1.007a7.465 7.465 0 0 1-2.848-2.877c-.69-1.247-1.036-2.685-1.036-4.316 0-1.61.355-3.04 1.065-4.287.71-1.246 1.678-2.205 2.906-2.877 1.227-.671 2.599-1.007 4.114-1.007 1.515 0 2.887.336 4.114 1.007 1.228.672 2.197 1.63 2.906 2.877.71 1.247 1.065 2.676 1.065 4.287 0 1.612-.365 3.04-1.094 4.287a7.645 7.645 0 0 1-2.992 2.906c-1.246.672-2.628 1.007-4.143 1.007zm0-2.848a4.8 4.8 0 0 0 2.36-.604c.748-.403 1.352-1.007 1.812-1.813.46-.806.69-1.784.69-2.935 0-1.15-.22-2.12-.661-2.906-.441-.805-1.026-1.41-1.755-1.812a4.8 4.8 0 0 0-2.36-.604 4.8 4.8 0 0 0-2.359.604c-.71.403-1.275 1.007-1.697 1.812-.422.787-.633 1.756-.633 2.906 0 1.708.431 3.031 1.294 3.97.883.921 1.986 1.382 3.31 1.382zM75.4 6.345c1.246 0 2.359.26 3.337.777.997.518 1.774 1.285 2.33 2.302.557 1.016.835 2.244.835 3.683v9.35H78.65v-8.861c0-1.42-.355-2.504-1.065-3.252-.71-.767-1.678-1.15-2.906-1.15-1.227 0-2.206.383-2.934 1.15-.71.748-1.065 1.832-1.065 3.252v8.861H67.4V6.604h3.28v1.813a5.453 5.453 0 0 1 2.043-1.525 6.678 6.678 0 0 1 2.675-.547zM84.04 14.459c0-1.592.326-3.002.978-4.23.672-1.227 1.573-2.177 2.705-2.848 1.15-.69 2.426-1.036 3.826-1.036a7.21 7.21 0 0 1 3.05.69c1.017.442 1.822 1.036 2.417 1.785V1.166h3.309v21.291h-3.309V20.07c-.537.768-1.285 1.4-2.244 1.9-.94.498-2.024.747-3.251.747-1.381 0-2.647-.345-3.798-1.036-1.132-.71-2.033-1.687-2.705-2.934-.652-1.266-.978-2.695-.978-4.287zm12.976.057c0-1.093-.23-2.042-.69-2.848-.442-.806-1.027-1.42-1.755-1.841a4.63 4.63 0 0 0-2.36-.633 4.63 4.63 0 0 0-2.36.633c-.728.402-1.323 1.007-1.783 1.812-.441.787-.662 1.727-.662 2.82 0 1.093.22 2.052.662 2.877.46.825 1.055 1.458 1.784 1.899a4.733 4.733 0 0 0 2.36.633 4.63 4.63 0 0 0 2.358-.633c.73-.422 1.314-1.036 1.756-1.841.46-.825.69-1.784.69-2.878zM106.961 8.963c.556-.767 1.314-1.39 2.273-1.87.978-.498 2.062-.748 3.251-.748 1.4 0 2.666.336 3.798 1.007 1.131.672 2.023 1.63 2.675 2.877.653 1.228.979 2.638.979 4.23 0 1.592-.326 3.02-.979 4.287-.652 1.247-1.553 2.225-2.704 2.934-1.132.691-2.388 1.036-3.769 1.036-1.228 0-2.321-.24-3.28-.719-.94-.48-1.688-1.093-2.244-1.841v2.301h-3.28V1.167h3.28v7.796zm9.638 5.496c0-1.093-.23-2.033-.69-2.82-.442-.805-1.036-1.41-1.784-1.812a4.632 4.632 0 0 0-2.36-.633c-.824 0-1.611.21-2.359.633-.729.421-1.323 1.035-1.784 1.84-.441.807-.661 1.756-.661 2.85 0 1.093.22 2.052.661 2.877.461.805 1.055 1.419 1.784 1.84a4.733 4.733 0 0 0 2.359.634c.844 0 1.631-.211 2.36-.633.748-.441 1.342-1.074 1.784-1.899.46-.825.69-1.784.69-2.877zM125.508 8.906a5.066 5.066 0 0 1 1.899-1.87c.805-.46 1.755-.69 2.848-.69V9.74h-.834c-1.285 0-2.264.326-2.935.979-.652.652-.978 1.783-.978 3.395v8.343h-3.28V6.604h3.28v2.302zM131.225 14.459c0-1.592.326-3.002.978-4.23.671-1.227 1.573-2.177 2.704-2.848 1.151-.69 2.417-1.036 3.798-1.036 1.247 0 2.331.25 3.251.748.94.48 1.688 1.084 2.245 1.813V6.604h3.308v15.853h-3.308v-2.359c-.557.748-1.314 1.372-2.273 1.87-.959.499-2.053.748-3.28.748a7.046 7.046 0 0 1-3.741-1.036c-1.131-.71-2.033-1.687-2.704-2.934-.652-1.266-.978-2.695-.978-4.287zm12.976.057c0-1.093-.231-2.042-.691-2.848-.441-.806-1.026-1.42-1.755-1.841a4.628 4.628 0 0 0-2.359-.633c-.844 0-1.631.21-2.36.633-.728.402-1.323 1.007-1.783 1.812-.442.787-.662 1.727-.662 2.82 0 1.093.22 2.052.662 2.877.46.825 1.055 1.458 1.783 1.899a4.734 4.734 0 0 0 2.36.633c.844 0 1.63-.211 2.359-.633.729-.422 1.314-1.036 1.755-1.841.46-.825.691-1.784.691-2.878zM152.534 4.504c-.595 0-1.093-.202-1.496-.604-.403-.403-.604-.902-.604-1.497 0-.594.201-1.093.604-1.496.403-.402.901-.604 1.496-.604.575 0 1.064.202 1.467.604.403.403.604.902.604 1.496 0 .595-.201 1.094-.604 1.497a1.998 1.998 0 0 1-1.467.604zm1.611 2.1v15.853h-3.28V6.604h3.28zM165.498 6.345c1.246 0 2.359.26 3.337.777.998.518 1.774 1.285 2.331 2.302.556 1.016.834 2.244.834 3.683v9.35h-3.251v-8.861c0-1.42-.355-2.504-1.065-3.252-.709-.767-1.678-1.15-2.906-1.15-1.227 0-2.206.383-2.934 1.15-.71.748-1.065 1.832-1.065 3.252v8.861h-3.28V6.604h3.28v1.813a5.452 5.452 0 0 1 2.043-1.525 6.679 6.679 0 0 1 2.676-.547z" fill="#333"/>
    <path d="M152.534 4.504c-.595 0-1.093-.202-1.496-.604-.403-.403-.604-.902-.604-1.497 0-.594.201-1.093.604-1.496.403-.402.901-.604 1.496-.604.575 0 1.064.202 1.467.604.403.403.604.902.604 1.496 0 .595-.201 1.094-.604 1.497a1.998 1.998 0 0 1-1.467.604z" fill="#F36"/>
</svg>
